Coordinates
version=1
nRows=17
nColumns=40
inDegrees=yes

Units are S.I. units (second, meters, Newtons, ...)
If the header above contains a line with 'inDegrees', this indicates whether rotational values are in degrees (yes) or radians (no).

endheader
time	pelvis_tilt	pelvis_list	pelvis_rotation	pelvis_tx	pelvis_ty	pelvis_tz	hip_flexion_r	hip_adduction_r	hip_rotation_r	knee_angle_r	knee_angle_r_beta	ankle_angle_r	subtalar_angle_r	mtp_angle_r	hip_flexion_l	hip_adduction_l	hip_rotation_l	knee_angle_l	knee_angle_l_beta	ankle_angle_l	subtalar_angle_l	mtp_angle_l	lumbar_extension	lumbar_bending	lumbar_rotation	arm_flex_r	arm_add_r	arm_rot_r	elbow_flex_r	pro_sup_r	wrist_flex_r	wrist_dev_r	arm_flex_l	arm_add_l	arm_rot_l	elbow_flex_l	pro_sup_l	wrist_flex_l	wrist_dev_l
     11.65000000	     -6.85794510	      9.23111367	    -10.96977839	      0.05164889	      1.31188906	      0.01442639	     52.09330667	      0.18883949	     13.94197693	     52.85072438	      0.92241915	    -15.89361037	    -33.86394381	      0.00000000	     61.44048992	     -7.72568062	     -8.25205076	    100.86720021	      1.76046475	    -22.03200693	    -17.65846160	      0.00000000	    -34.48831118	     -8.75785584	     -2.94907288	     57.95430505	      6.98235435	     -6.49436035	     47.16928717	     86.42064738	      0.00000000	      0.00000000	     61.01187586	     -8.14616849	    -11.53392509	     53.90271062	     74.12837096	      0.00000000	      0.00000000
     11.66700000	     -6.97459502	      9.24163978	    -10.00968597	      0.05155402	      1.31188825	      0.01376998	     49.03215676	     -1.70295205	     12.00842547	     48.90955563	      0.85363278	    -19.52712946	    -33.38107317	      0.00000000	     64.80225372	     -7.19596679	     -6.85031854	    104.24886385	      1.81948592	    -18.77916295	    -17.91001964	      0.00000000	    -34.34316271	     -8.66207665	     -3.29548142	     57.63404939	      6.11787600	     -6.44619716	     47.31027162	     86.29128304	      0.00000000	      0.00000000	     61.72046194	     -7.41883193	    -11.02073522	     52.81886867	     74.18970443	      0.00000000	      0.00000000
     11.68300000	     -7.06518155	      9.11324149	     -9.15406493	      0.05123921	      1.31187799	      0.01327294	     46.29408675	     -3.40630833	      9.74920028	     46.03607351	      0.80348106	    -23.01477075	    -32.38328732	      0.00000000	     68.08631213	     -6.63068219	     -5.36934516	    106.90888794	      1.86591209	    -15.15533974	    -18.32090616	      0.00000000	    -34.22945007	     -8.50591028	     -3.41060392	     57.36233486	      4.96165809	     -6.14315185	     47.48804923	     86.37529319	      0.00000000	      0.00000000	     62.56556152	     -6.47399778	    -10.64345814	     51.55236200	     74.43593561	      0.00000000	      0.00000000
     11.70000000	     -7.11540757	      9.21000947	     -8.86999356	      0.05109559	      1.31166522	      0.01332165	     44.25382155	     -4.71257551	      8.42794587	     44.63157335	      0.77896791	    -25.52391901	    -30.45239983	      0.00000000	     70.95191881	     -6.29273784	     -4.59096291	    108.51535981	      1.89395032	    -11.86594831	    -19.34699191	      0.00000000	    -34.07890227	     -8.74603852	     -3.42063115	     57.21497787	      4.17227329	     -5.89967073	     47.38335029	     86.13371015	      0.00000000	      0.00000000	     63.05061874	     -5.85193922	    -10.38116151	     50.67471854	     74.54895912	      0.00000000	      0.00000000
     11.71700000	     -7.04944504	      9.27633312	     -8.97541651	      0.05085451	      1.31153152	      0.01388531	     42.76189627	     -5.56127455	      7.85299271	     44.68127876	      0.77983543	    -27.35304593	    -28.83077892	      0.00000000	     73.41341897	     -6.12063098	     -4.11460823	    108.96719044	      1.90183625	     -9.27228668	    -20.64696141	      0.00000000	    -34.15203006	     -9.05041161	     -3.37233107	     57.25288751	      3.75754318	     -5.82361064	     47.33424223	     85.75642306	      0.00000000	      0.00000000	     63.26618350	     -5.61774078	    -10.11412911	     50.47206179	     74.51357858	      0.00000000	      0.00000000
     11.73300000	     -7.14973717	      9.29699310	     -8.94052892	      0.05058015	      1.31129048	      0.01416705	     42.01698956	     -6.34084448	      7.43560326	     46.11196597	      0.80480563	    -28.69028326	    -27.73950415	      0.00000000	     75.75676987	     -5.63177534	     -3.84833122	    108.31712507	      1.89049047	     -7.64895466	    -23.56635175	      0.00000000	    -34.15143374	     -9.13298363	     -3.52724245	     57.28522339	      3.31760899	     -5.41522125	     47.63508852	     86.31215882	      0.00000000	      0.00000000	     63.34772309	     -5.50376266	    -10.07193707	     50.53029302	     74.93126866	      0.00000000	      0.00000000
     11.75000000	     -6.90079440	      9.13562528	     -9.38555921	      0.05038460	      1.31149924	      0.01502781	     41.52802525	     -6.52008722	      7.61809161	     48.68359816	      0.84968908	    -29.51967279	    -27.00064505	      0.00000000	     76.97824693	     -5.50878117	     -3.31689982	    106.66797468	      1.86170736	     -5.93095344	    -24.88495048	      0.00000000	    -34.47476971	     -9.27025302	     -3.29830743	     57.48158041	      3.19570115	     -5.34165362	     47.57750245	     86.09993262	      0.00000000	      0.00000000	     63.40054568	     -5.40969797	    -10.20669798	     50.62578298	     74.93337841	      0.00000000	      0.00000000
     11.76700000	     -6.55177892	      8.73635872	     -9.80145808	      0.05023502	      1.31202061	      0.01566469	     41.53607573	     -6.30094137	      8.04646815	     52.48330432	      0.91600646	    -30.04011732	    -26.53938929	      0.00000000	     77.36646660	     -5.19824818	     -2.30831082	    103.82712136	      1.81212512	     -5.02336615	    -25.49856341	      0.00000000	    -34.95456571	     -9.14555405	     -2.88720808	     57.72276604	      2.96396770	     -5.26422711	     47.54420547	     85.74381177	      0.00000000	      0.00000000	     63.42561624	     -5.13947090	    -10.53810781	     50.81079360	     74.81111694	      0.00000000	      0.00000000
     11.78300000	     -6.59554294	      9.06049404	    -10.47743208	      0.04996237	      1.31171830	      0.01624834	     42.89836614	     -6.22607499	      9.36085627	     57.68414034	      1.00677818	    -29.68296445	    -26.46887492	      0.00000000	     77.41149299	     -4.82096540	     -2.20988258	     99.83392207	      1.74243065	     -4.91544974	    -27.46128614	      0.00000000	    -34.85227914	     -9.78619100	     -2.54249154	     57.95555163	      2.62588896	     -4.88331165	     47.40325325	     86.37943318	      0.00000000	      0.00000000	     63.46360039	     -4.29831461	    -12.07330322	     50.81541404	     75.57761034	      0.00000000	      0.00000000
     11.80000000	     -6.25288506	      8.31120525	    -10.88189707	      0.04996351	      1.31235200	      0.01667102	     43.75854809	     -5.37142410	      9.86472950	     62.97949269	      1.09919951	    -29.88781220	    -26.50274064	      0.00000000	     76.23249044	     -4.59814021	     -0.99469203	     95.37659946	      1.66463569	     -4.63990689	    -27.73599350	      0.00000000	    -35.32657049	     -9.25395733	     -1.93969859	     58.21732234	      2.50703243	     -4.83223604	     47.34525569	     86.17043762	      0.00000000	      0.00000000	     63.44386434	     -4.08429729	    -12.46462041	     50.95993502	     75.53887322	      0.00000000	      0.00000000
     11.81700000	     -6.12596768	      8.44578191	    -11.74723096	      0.04984053	      1.31245474	      0.01745260	     45.64679297	     -4.62292300	     11.27498539	     69.14093535	      1.20673697	    -28.97413475	    -27.32025858	      0.00000000	     74.31442182	     -4.81198414	     -1.52552139	     89.94240359	      1.56979108	     -5.32774379	    -29.86695175	      0.00000000	    -35.31392810	     -9.75705144	     -1.46455482	     58.55878901	      2.49088100	     -4.68624389	     46.90552869	     86.34748291	      0.00000000	      0.00000000	     63.50543360	     -3.86405762	    -13.12932073	     50.84222051	     76.09061255	      0.00000000	      0.00000000
     11.83300000	     -5.96596986	      7.95335824	    -12.49584793	      0.04993324	      1.31274148	      0.01812169	     47.59529749	     -3.25146088	     12.23183141	     75.55640121	      1.31870797	    -28.26093430	    -27.99770374	      0.00000000	     71.55897100	     -5.22227866	     -1.60204554	     83.88601081	      1.46408708	     -6.06129486	    -31.29264874	      0.00000000	    -35.40582457	     -9.58070078	     -0.77234540	     58.84231497	      2.64087629	     -4.77739174	     46.55717300	     86.35334541	      0.00000000	      0.00000000	     63.44609199	     -4.04713880	    -13.13018260	     50.88181087	     76.53215717	      0.00000000	      0.00000000
     11.85000000	     -5.87910317	      7.51910551	    -13.26929506	      0.05000664	      1.31288993	      0.01885991	     49.77076484	     -1.81743810	     13.13651554	     81.58175748	      1.42387028	    -27.79888404	    -28.51883368	      0.00000000	     68.30057826	     -5.72714144	     -1.94540619	     77.65246924	      1.35529126	     -6.95538013	    -32.16969155	      0.00000000	    -35.40032529	     -9.45355557	     -0.04324420	     59.04893005	      2.77988609	     -4.74083884	     46.29105697	     86.40489256	      0.00000000	      0.00000000	     63.32888743	     -4.29361834	    -13.10756092	     50.98333935	     77.03219881	      0.00000000	      0.00000000
     11.86700000	     -5.97047980	      7.03065899	    -13.94058182	      0.05005904	      1.31269689	      0.01938442	     52.23879235	     -0.32442976	     13.83861781	     87.16303928	      1.52128202	    -27.31140133	    -29.21339272	      0.00000000	     64.60213800	     -6.24568117	     -2.51088242	     71.23755306	      1.24332985	     -7.94169618	    -32.43120286	      0.00000000	    -35.21813949	     -9.17657243	      0.66286877	     59.26761287	      2.88413151	     -4.42540308	     45.97321273	     86.25431493	      0.00000000	      0.00000000	     63.08421308	     -4.51626534	    -13.34337500	     51.20850240	     77.01373162	      0.00000000	      0.00000000
     11.88300000	     -6.09065307	      6.61705563	    -14.75963976	      0.05010460	      1.31243392	      0.02007685	     54.98767116	      1.28326109	     14.55331987	     92.40886529	      1.61283896	    -27.05796145	    -29.83590141	      0.00000000	     60.31250475	     -6.84715536	     -3.57084950	     64.40557783	      1.12408939	     -9.38462344	    -32.63071944	      0.00000000	    -34.97757868	     -9.02584369	      1.45872927	     59.42021122	      3.05213925	     -4.10682277	     45.71101580	     86.26220925	      0.00000000	      0.00000000	     62.75954882	     -4.84855267	    -13.50377468	     51.57865164	     77.03670276	      0.00000000	      0.00000000
     11.90000000	     -6.21771804	      6.36537660	    -15.57358473	      0.05004125	      1.31204937	      0.02086691	     57.88701580	      2.96795111	     15.36418105	     97.31011702	      1.69838194	    -26.22418359	    -30.16410780	      0.00000000	     55.98767973	     -7.39364732	     -5.09025827	     57.89368673	      1.01043545	    -11.19378132	    -32.54909188	      0.00000000	    -34.72063714	     -9.04127889	      2.19010445	     59.55779969	      3.27130425	     -3.86182151	     45.49390082	     86.40203744	      0.00000000	      0.00000000	     62.47474375	     -5.15606915	    -13.64620342	     51.87291544	     77.16117471	      0.00000000	      0.00000000
     11.91700000	     -6.62773163	      5.90118414	    -15.91788882	      0.04986213	      1.31142036	      0.02114726	     61.15762120	      4.49656336	     15.41429429	    102.02365266	      1.78064865	    -24.14733783	    -30.55499499	      0.00000000	     52.07026663	     -7.86907020	     -6.34936842	     51.99101247	      0.90741435	    -13.38272975	    -31.25372871	      0.00000000	    -34.30400841	     -8.58981754	      2.73417585	     59.72604401	      3.50625537	     -3.59763619	     45.18927387	     86.24476632	      0.00000000	      0.00000000	     62.09283856	     -5.27333174	    -14.01215438	     52.20671290	     77.03065880	      0.00000000	      0.00000000
